<svg xmlns="http://www.w3.org/2000/svg" width="56" height="56" viewBox="0 0 56 56">
  <defs>
    <linearGradient id="cookie-consent-icon-a" x1="50%" x2="50%" y1="0%" y2="100%">
      <stop offset="0%" stop-color="#095C56"/>
      <stop offset="100%" stop-color="#193533"/>
    </linearGradient>
  </defs>
  <g fill="none" fill-rule="evenodd">
    <circle cx="28" cy="28" r="28" fill="url(#cookie-consent-icon-a)" fill-rule="nonzero"/>
    <g fill="#FFF" fill-rule="nonzero" transform="translate(10 10)">
      <path d="M35.679375,14.67 C35.58825,14.18625 35.195625,13.8195 34.707375,13.761 C34.218,13.7025 33.751125,13.966875 33.548625,14.41575 C33.192,15.20325 32.409,15.751125 31.501125,15.75 C30.49425,15.75225 29.64375,15.07275 29.36025,14.140125 C29.18925,13.570875 28.60425,13.233375 28.026,13.368375 C27.6705,13.451625 27.334125,13.5 27,13.5 C24.521625,13.4955 22.5045,11.478375 22.5,9 C22.5,8.665875 22.548375,8.3295 22.631625,7.975125 C22.76775,7.396875 22.429125,6.81075 21.859875,6.63975 C20.92725,6.357375 20.24775,5.506875 20.25,4.5 C20.248875,3.591 20.79675,2.809125 21.58425,2.4525 C22.033125,2.25 22.2975,1.782 22.239,1.29375 C22.1805,0.804375 21.81375,0.41175 21.33,0.320625 C20.25675,0.11925 19.14525,0 18,0 C8.07075,0.00225 0.00225,8.07075 0,18 C0.00225,27.92925 8.07075,35.99775 18,36 C27.92925,35.99775 35.99775,27.92925 36,18 C36,16.85475 35.88075,15.74325 35.679375,14.67 Z M29.131875,29.131875 C26.2755,31.986 22.34475,33.75 18,33.75 C13.65525,33.75 9.7245,31.986 6.868125,29.131875 C4.014,26.2755 2.25,22.34475 2.25,18 C2.25,13.65525 4.014,9.7245 6.868125,6.868125 C9.7245,4.014 13.65525,2.25 18,2.25 C18.2025,2.25 18.4005,2.271375 18.601875,2.280375 C18.226125,2.935125 18.001125,3.688875 18,4.5 C18.00225,6.179625 18.93375,7.619625 20.291625,8.388 C20.27025,8.58825 20.25,8.7885 20.25,9 C20.25225,12.724875 23.275125,15.74775 27,15.75 C27.2115,15.75 27.41175,15.72975 27.612,15.708375 C28.380375,17.065125 29.81925,17.99775 31.5,18 C32.311125,17.998875 33.064875,17.773875 33.719625,17.398125 C33.728625,17.598375 33.75,17.7975 33.75,18 C33.75,22.34475 31.986,26.2755 29.131875,29.131875 Z"/>
      <circle cx="13.5" cy="9.5" r="2.5"/>
      <circle cx="9.5" cy="18.5" r="2.5"/>
      <circle cx="20.5" cy="27.5" r="2.5"/>
      <circle cx="19" cy="19" r="1"/>
      <circle cx="28" cy="24" r="1"/>
      <circle cx="12" cy="26" r="1"/>
    </g>
  </g>
</svg>
